<?xml version="1.0" standalone="no"?>
<!DOCTYPE svg PUBLIC "-//W3C//DTD SVG 20010904//EN"
 "http://www.w3.org/TR/2001/REC-SVG-20010904/DTD/svg10.dtd">
<svg version="1.0" xmlns="http://www.w3.org/2000/svg"
 width="300.000000pt" height="376.000000pt" viewBox="0 0 300.000000 376.000000"
 preserveAspectRatio="xMidYMid meet">
<metadata>
Created by potrace 1.10, written by Peter Selinger 2001-2011
</metadata>
<g transform="translate(0.000000,376.000000) scale(0.100000,-0.100000)"
fill="#000000" stroke="none">
<path d="M2452 3648 c-7 -7 -12 -18 -12 -26 0 -12 3 -12 15 -2 11 9 18 10 28
1 21 -17 29 0 10 21 -19 21 -25 22 -41 6z"/>
<path d="M2275 3642 c-10 -10 7 -22 31 -22 25 0 26 -1 22 -70 -2 -51 0 -70 10
-70 8 0 12 21 12 70 0 68 1 70 25 70 14 0 25 6 25 13 0 10 -17 14 -60 14 -33
0 -62 -2 -65 -5z"/>
<path d="M2553 3616 c3 -8 1 -17 -6 -20 -9 -3 -9 -7 1 -13 7 -5 11 -27 10 -52
-1 -41 13 -65 36 -58 17 6 18 27 2 27 -12 0 -16 10 -16 40 0 29 4 40 15 40 8
0 15 5 15 10 0 6 -7 10 -15 10 -8 0 -15 7 -15 15 0 8 -7 15 -16 15 -10 0 -14
-6 -11 -14z"/>
<path d="M2433 3588 c-31 -40 -24 -94 14 -109 27 -10 73 -2 73 13 0 6 -11 7
-26 4 -27 -7 -54 7 -54 28 0 7 14 10 40 8 37 -4 40 -2 40 20 0 13 -5 29 -12
36 -16 16 -63 15 -75 0z m65 -25 c2 -9 -7 -13 -27 -13 -30 0 -39 9 -24 24 11
10 46 3 51 -11z"/>
<path d="M2647 3582 c-23 -25 -21 -68 3 -92 24 -24 49 -25 76 -4 18 15 17 15
-13 10 -23 -4 -37 0 -49 12 -17 16 -15 17 29 20 38 3 47 7 47 22 0 45 -62 66
-93 32z m67 -17 c4 -12 -3 -15 -31 -15 -30 0 -34 2 -23 15 7 8 20 15 30 15 10
0 20 -7 24 -15z"/>
<path d="M1571 3539 c-52 -17 -75 -32 -126 -82 -85 -85 -108 -144 -108 -287 0
-144 16 -213 55 -241 l30 -22 -4 -100 -4 -100 43 -19 c24 -10 64 -21 91 -25
l47 -5 0 -63 c0 -63 0 -63 -41 -89 -32 -20 -54 -26 -101 -26 -84 0 -156 -24
-198 -66 -67 -66 -124 -218 -125 -328 0 -32 -8 -47 -48 -90 -90 -100 -136
-219 -114 -299 6 -21 9 -37 6 -37 -2 0 -18 9 -36 20 -18 11 -41 20 -51 20 -28
0 -102 75 -133 135 l-29 54 25 26 c17 18 26 42 31 85 4 33 16 78 28 100 28 54
27 61 -13 97 -34 30 -63 101 -52 128 7 19 -18 37 -46 33 -21 -3 -39 -27 -53
-73 -6 -20 -6 -20 -22 0 -8 11 -38 67 -65 125 -68 143 -88 162 -128 125 -16
-14 -18 -13 -30 15 -14 35 -48 40 -73 12 -15 -16 -15 -27 -6 -78 6 -32 22 -86
35 -118 28 -69 29 -76 10 -76 -21 0 -46 -28 -46 -52 0 -11 -9 -31 -20 -45 -51
-65 12 -259 78 -239 16 5 21 1 25 -24 8 -37 50 -82 71 -74 19 7 57 -66 120
-236 102 -270 130 -306 321 -403 110 -56 131 -64 152 -54 12 5 23 14 23 19 0
5 15 42 33 81 23 50 56 97 108 152 41 44 83 100 94 124 l20 45 12 -70 c6 -38
12 -86 12 -106 1 -27 5 -38 16 -38 19 0 19 12 0 140 -19 126 -16 139 25 108
32 -23 107 -30 162 -15 l26 7 -5 -78 c-3 -44 0 -101 7 -132 7 -30 12 -66 12
-80 -1 -14 -4 -107 -7 -208 -4 -125 -3 -194 5 -217 6 -19 13 -96 14 -172 3
-142 12 -181 48 -221 12 -12 18 -22 14 -22 -36 0 -107 97 -144 196 -16 43 -39
77 -84 124 -76 79 -128 172 -128 226 0 22 9 59 20 83 23 50 17 67 -11 33 -19
-25 -39 -83 -39 -117 0 -11 -21 -72 -46 -135 -54 -137 -116 -337 -138 -443
-10 -45 -16 -126 -16 -200 0 -77 -5 -141 -14 -170 -13 -44 -8 -66 13 -53 15
10 22 65 30 246 8 159 12 186 45 299 20 68 60 186 88 263 l51 139 29 -60 c17
-36 54 -87 91 -124 42 -42 69 -80 81 -113 22 -57 67 -141 93 -170 29 -34 65
-53 121 -64 28 -7 52 -15 52 -19 0 -8 -67 -76 -93 -94 -12 -8 -22 -40 -32
-107 -9 -52 -22 -115 -30 -139 -18 -55 -19 -61 -2 -61 16 0 42 88 58 196 11
73 14 79 60 123 l49 47 42 -90 c24 -49 64 -119 91 -154 30 -42 47 -75 47 -93
0 -19 5 -29 15 -29 34 0 12 72 -45 145 -45 58 -140 249 -140 282 0 61 99 265
177 365 71 90 136 138 187 138 22 0 46 -4 52 -8 20 -13 44 -70 80 -194 113
-385 137 -490 150 -651 5 -58 11 -77 21 -77 12 0 14 13 8 73 -14 153 -38 262
-127 572 -33 116 -70 228 -82 251 -15 26 -20 47 -15 60 16 40 9 138 -12 184
-36 77 -38 95 -22 172 11 52 13 100 9 164 -6 85 -5 92 15 110 12 10 34 45 49
78 l27 58 31 -53 c48 -85 71 -106 162 -152 116 -58 125 -75 104 -212 -18 -113
-13 -191 17 -275 36 -103 16 -353 -32 -401 -10 -10 -33 -19 -50 -19 -22 0 -41
-10 -65 -34 -33 -33 -35 -38 -34 -108 0 -40 0 -83 -1 -95 -2 -29 35 -78 69
-94 15 -6 35 -29 45 -51 31 -64 92 -82 140 -40 14 12 22 13 43 3 22 -9 31 -9
49 3 13 9 26 25 30 36 4 11 11 18 16 15 15 -10 49 15 49 36 0 12 8 23 20 26
25 7 46 71 35 110 -5 15 -9 58 -9 95 -1 59 -5 72 -35 114 -33 48 -34 49 -27
129 3 46 23 141 47 225 40 141 41 150 46 331 4 125 2 193 -6 206 -6 12 -31 31
-56 43 -83 40 -156 145 -170 245 -11 73 -30 114 -74 154 -34 32 -41 48 -65
140 -32 125 -65 190 -124 241 -55 49 -115 69 -222 77 -81 6 -87 8 -130 46 -25
22 -60 46 -77 53 -27 12 -35 23 -49 70 -10 34 -16 92 -16 143 0 72 5 99 30
161 71 179 88 349 46 441 -77 166 -290 249 -483 188z m297 -44 c75 -34 143
-104 166 -172 31 -91 14 -235 -45 -381 -41 -101 -49 -218 -24 -327 18 -74 18
-76 -1 -90 -101 -77 -270 -86 -325 -17 -14 18 -19 41 -19 87 l0 62 78 6 c68 4
161 30 201 56 16 10 22 183 6 191 -6 3 -11 -28 -13 -81 l-3 -87 -49 -21 c-92
-39 -272 -45 -366 -11 l-31 11 5 95 5 94 -36 34 c-33 31 -37 40 -48 122 -27
201 20 339 141 413 70 43 103 51 205 48 74 -3 101 -8 153 -32z m-1481 -980
c19 -40 33 -44 51 -15 18 30 42 24 54 -12 6 -18 33 -76 60 -129 69 -136 118
-176 118 -96 0 36 26 81 41 72 5 -4 9 -22 9 -41 0 -42 12 -68 53 -111 l30 -32
-22 -45 c-12 -26 -21 -66 -21 -91 0 -35 -6 -51 -31 -80 l-32 -36 18 -45 c16
-43 16 -46 -1 -66 -25 -27 -62 -45 -101 -50 -30 -3 -33 0 -70 72 -29 57 -42
74 -56 72 -26 -4 -44 14 -57 56 -21 69 -20 66 -32 54 -20 -20 -43 -14 -60 16
-33 57 -40 143 -12 173 10 11 19 26 20 32 0 7 2 20 2 30 2 13 11 17 38 17 30
0 35 3 30 18 -3 9 -19 55 -35 102 -40 115 -49 170 -27 170 9 0 24 -16 33 -35z
m1663 -11 c14 -10 41 -33 61 -52 34 -31 36 -37 28 -66 -17 -56 -23 -240 -10
-308 17 -85 70 -197 110 -231 18 -15 36 -27 41 -27 4 0 10 -12 13 -26 6 -33
-35 -128 -71 -167 -56 -59 -146 -88 -203 -65 -25 10 -50 12 -94 6 -74 -10
-171 4 -243 37 l-52 24 6 69 c5 54 3 80 -11 116 -15 38 -17 63 -12 135 7 96
43 277 80 406 l23 80 41 -3 c55 -5 149 23 198 58 47 33 62 36 95 14z m-375
-54 c13 0 16 -5 11 -22 -43 -149 -80 -317 -94 -425 -16 -126 -15 -135 1 -185
12 -35 17 -75 15 -118 l-3 -65 -57 -9 c-109 -17 -168 18 -210 123 -19 48 -22
75 -23 198 0 78 -3 144 -7 148 -9 9 -20 -88 -21 -185 0 -87 9 -131 45 -211
l20 -46 -41 -80 c-26 -53 -58 -98 -91 -129 -60 -57 -108 -128 -139 -207 -13
-31 -25 -57 -28 -57 -2 0 -62 30 -133 66 -174 88 -198 117 -287 349 -48 125
-48 126 -30 119 25 -9 81 14 112 46 l29 30 48 -54 c38 -43 56 -56 87 -61 23
-4 56 -21 81 -42 22 -19 43 -33 46 -30 3 3 0 31 -6 63 -24 114 7 206 103 311
l54 58 6 80 c9 134 74 269 150 308 34 17 147 40 156 31 3 -3 -11 -18 -31 -34
-20 -17 -50 -53 -67 -80 -31 -50 -76 -188 -65 -199 10 -10 32 28 39 66 4 20
16 57 27 81 23 47 122 162 142 162 6 1 29 14 51 29 l39 28 27 -28 c15 -16 35
-29 44 -29z m679 -57 c49 -13 71 -27 112 -68 56 -56 85 -118 112 -245 14 -67
21 -80 63 -120 26 -25 50 -56 52 -70 23 -114 40 -167 71 -213 43 -65 69 -90
126 -120 l45 -24 0 -194 0 -194 -39 -130 c-21 -71 -40 -154 -43 -184 -6 -49
-9 -54 -39 -67 -40 -17 -84 -18 -118 -3 -24 11 -24 13 -19 108 5 86 3 108 -22
191 -25 84 -27 104 -22 190 4 52 11 110 16 128 10 35 2 79 -23 117 -9 13 -54
42 -101 66 -77 37 -91 49 -132 106 -49 68 -92 163 -93 201 0 13 -6 22 -16 22
-11 0 -15 -6 -11 -20 12 -48 -29 -9 -63 59 -57 115 -75 220 -59 354 15 134 10
127 82 127 33 0 88 -8 121 -17z m-668 -820 c52 -24 74 -28 184 -31 69 -2 150
-6 181 -9 45 -4 65 0 98 16 36 19 42 20 47 6 6 -15 -1 -175 -12 -271 -5 -41
-1 -62 22 -115 20 -46 27 -80 27 -121 -1 -71 -7 -82 -46 -74 -68 14 -137 -31
-237 -154 -67 -82 -170 -290 -170 -342 0 -40 -68 -2 -101 56 -20 35 -25 63
-33 201 -5 88 -11 266 -12 395 -2 129 -6 288 -10 353 -3 64 -4 117 -1 117 2 0
31 -12 63 -27z m1036 -844 c32 -10 45 -9 78 4 l40 15 0 -34 c0 -23 11 -48 36
-80 33 -44 35 -52 34 -113 -1 -36 1 -78 5 -93 10 -38 -1 -75 -24 -81 -11 -2
-21 -15 -23 -28 -2 -18 -10 -25 -31 -27 -18 -2 -31 -11 -37 -27 -12 -32 -24
-37 -54 -24 -21 10 -29 8 -52 -10 -15 -11 -37 -21 -50 -21 -23 0 -56 36 -68
76 -4 12 -20 27 -36 34 -57 24 -65 43 -62 143 3 77 7 96 25 115 11 12 29 22
39 22 44 0 85 28 101 69 10 23 17 51 17 62 0 13 5 19 13 15 6 -2 29 -10 49
-17z"/>
<path d="M1627 3189 c-24 -14 -11 -32 14 -19 50 27 52 -31 4 -87 -19 -23 -35
-44 -35 -47 0 -3 25 -6 55 -6 30 0 55 5 55 10 0 6 -16 10 -36 10 l-35 0 30 37
c32 39 40 80 19 101 -15 15 -47 15 -71 1z"/>
<path d="M523 2160 c-36 -14 -27 -29 12 -23 31 5 35 3 35 -16 0 -16 -8 -23
-30 -27 -38 -8 -39 -24 -1 -24 34 0 49 -26 27 -49 -12 -12 -20 -12 -40 -3 -16
7 -28 8 -31 2 -11 -17 43 -35 73 -24 21 7 28 17 30 42 2 22 -2 34 -12 38 -14
5 -14 8 -1 21 21 20 19 39 -7 57 -25 18 -25 18 -55 6z"/>
<path d="M1747 2186 c-42 -32 -49 -126 -13 -201 28 -62 63 -103 115 -139 l40
-28 35 21 c41 26 99 88 122 132 36 70 28 196 -15 218 -26 14 -264 11 -284 -3z
m143 -9 c19 0 55 3 78 4 36 3 47 0 63 -20 25 -31 25 -121 0 -176 -16 -37 -122
-145 -141 -145 -21 0 -115 100 -136 145 -26 54 -32 132 -13 166 14 27 48 39
84 31 17 -4 46 -6 65 -5z"/>
<path d="M1799 2121 c-13 -11 -21 -23 -17 -27 4 -4 14 -1 23 6 13 11 15 5 15
-49 0 -54 -2 -61 -20 -61 -11 0 -20 -4 -20 -10 0 -5 23 -10 50 -10 28 0 50 5
50 10 0 6 -7 10 -15 10 -12 0 -15 15 -15 75 0 82 -8 91 -51 56z"/>
<path d="M1923 2133 c-7 -2 -13 -11 -13 -19 0 -12 4 -12 21 -3 17 9 24 8 36
-4 13 -13 13 -18 0 -43 -8 -16 -27 -40 -41 -53 -14 -13 -23 -28 -20 -32 7 -13
104 -11 104 1 0 6 -16 10 -36 10 l-36 0 31 35 c58 67 27 138 -46 108z"/>
<path d="M1348 2136 c-24 -18 -23 -29 2 -21 18 6 20 2 20 -54 0 -54 -2 -61
-20 -61 -11 0 -20 -4 -20 -10 0 -5 23 -10 51 -10 36 0 49 4 46 13 -2 6 -11 11
-21 9 -14 -2 -16 8 -16 73 0 78 -7 88 -42 61z"/>
<path d="M1478 2136 c-10 -7 -18 -19 -18 -27 0 -10 3 -10 12 -1 22 22 28 12
28 -48 0 -51 -3 -60 -16 -58 -10 2 -19 -3 -21 -9 -3 -9 10 -13 47 -13 37 0 50
4 48 13 -3 6 -11 12 -19 12 -11 0 -14 17 -14 73 0 76 -9 87 -47 58z"/>
<path d="M951 1460 c-41 -66 -40 -80 4 -80 29 0 35 -4 35 -21 0 -12 5 -19 13
-16 6 2 11 12 11 21 -1 9 4 16 12 16 17 0 19 17 2 22 -8 3 -11 23 -9 56 2 46
0 52 -17 52 -14 0 -31 -17 -51 -50z m39 -20 c0 -36 -2 -40 -25 -40 l-26 0 23
40 c13 22 24 40 26 40 1 0 2 -18 2 -40z"/>
<path d="M2764 1502 c-35 -23 -45 -102 -18 -140 30 -44 94 -18 94 38 0 35 -28
53 -67 44 -27 -7 -27 -7 -12 17 10 15 28 25 48 27 17 2 29 8 26 13 -7 11 -55
12 -71 1z m50 -94 c13 -22 -14 -54 -38 -45 -16 6 -22 48 -9 61 11 11 35 3 47
-16z"/>
<path d="M1857 1332 c-36 -40 -15 -86 37 -85 20 1 36 -3 36 -7 0 -17 -33 -41
-54 -38 -11 1 -23 -2 -26 -7 -3 -6 9 -11 27 -13 47 -5 73 26 73 84 0 25 -5 54
-10 65 -14 25 -61 25 -83 1z m63 -21 c15 -29 12 -39 -12 -47 -28 -9 -52 20
-37 47 13 25 36 24 49 0z"/>
<path d="M2659 535 c0 -3 -1 -22 -2 -42 0 -36 2 -38 32 -41 36 -4 50 -25 31
-48 -9 -10 -22 -13 -43 -8 -22 5 -28 3 -25 -7 6 -19 59 -23 79 -7 41 32 26 89
-24 91 -21 2 -27 7 -27 25 0 19 5 22 35 22 19 0 35 5 35 10 0 10 -89 15 -91 5z"/>
<path d="M2283 3369 c-90 -43 -163 -83 -163 -89 0 -5 2 -10 5 -10 16 0 325
162 325 170 0 6 -1 10 -2 9 -2 0 -76 -36 -165 -80z"/>
<path d="M2260 2882 c-18 -14 -23 -30 -24 -64 -1 -57 23 -88 69 -88 33 0 64
23 46 34 -5 4 -12 2 -16 -4 -9 -15 -41 -12 -59 6 -9 8 -16 31 -16 49 0 53 47
84 78 53 17 -17 28 -2 12 17 -17 21 -63 19 -90 -3z"/>
<path d="M2390 2840 c-39 -39 -14 -110 40 -110 33 0 60 31 60 67 0 28 -33 63
-60 63 -11 0 -29 -9 -40 -20z m70 -30 c15 -28 -4 -62 -33 -58 -22 3 -34 35
-23 64 8 21 44 17 56 -6z"/>
<path d="M2530 2840 c-24 -24 -26 -72 -4 -94 19 -20 84 -22 84 -2 0 9 -8 12
-25 8 -25 -4 -55 12 -55 29 0 5 20 9 45 9 51 0 59 16 25 50 -11 11 -27 20 -35
20 -8 0 -24 -9 -35 -20z m58 -22 c2 -11 -5 -15 -23 -15 -26 0 -35 21 -12 30
18 8 32 2 35 -15z"/>
<path d="M2649 2856 c-2 -3 -2 -31 1 -63 l5 -58 48 -1 48 -1 -3 61 c-4 72 -21
77 -28 9 -4 -40 -8 -48 -25 -48 -17 0 -20 8 -23 53 -3 46 -10 61 -23 48z"/>
<path d="M2784 2851 c-2 -2 -4 -31 -4 -63 0 -44 4 -58 14 -58 11 0 16 14 18
48 3 40 6 47 26 50 34 5 20 27 -17 27 -18 0 -35 -2 -37 -4z"/>
<path d="M2275 2623 c-162 -81 -161 -81 -153 -88 7 -7 328 147 328 157 0 16
-29 5 -175 -69z"/>
<path d="M383 1629 c-149 -286 -205 -400 -199 -406 3 -4 8 -4 9 -2 19 21 278
542 275 551 -3 7 -41 -58 -85 -143z"/>
<path d="M1350 1330 c-14 -10 -22 -22 -18 -26 4 -4 14 -1 23 6 13 11 15 5 15
-49 0 -54 -2 -61 -20 -61 -11 0 -20 -4 -20 -10 0 -5 23 -10 50 -10 28 0 50 5
50 10 0 6 -7 10 -15 10 -12 0 -15 15 -15 75 0 82 -6 89 -50 55z"/>
<path d="M1469 1333 c-8 -9 -14 -39 -14 -68 0 -61 16 -85 56 -85 36 0 59 32
59 85 0 22 -7 51 -16 63 -18 26 -65 30 -85 5z m66 -68 c0 -51 -3 -60 -19 -63
-24 -5 -36 14 -36 60 0 52 9 70 34 66 19 -3 21 -9 21 -63z"/>
<path d="M40 1086 c0 -73 2 -86 16 -86 14 0 16 10 12 71 -6 81 1 79 32 -9 13
-34 28 -61 34 -59 6 2 22 32 36 68 l25 64 3 -67 c2 -52 6 -68 17 -68 12 0 15
17 15 85 0 79 -1 85 -21 85 -19 0 -30 -18 -68 -114 -5 -14 -12 -5 -32 45 -19
49 -30 65 -47 67 -21 3 -22 0 -22 -82z"/>
<path d="M273 1123 c-25 -10 -12 -23 19 -21 25 2 33 -1 36 -16 3 -13 0 -17 -9
-14 -8 3 -24 1 -37 -3 -18 -7 -23 -15 -20 -36 3 -26 6 -28 48 -28 l44 1 -3 49
c-1 28 -7 56 -13 63 -10 12 -42 15 -65 5z m57 -78 c0 -9 -7 -18 -16 -22 -18
-7 -39 11 -30 26 11 17 46 13 46 -4z"/>
<path d="M390 1065 c0 -37 4 -65 10 -65 6 0 10 28 10 65 0 37 -4 65 -10 65 -6
0 -10 -28 -10 -65z"/>
<path d="M450 1065 c0 -37 4 -65 10 -65 6 0 10 20 10 45 0 33 5 47 19 54 27
15 43 -8 39 -55 -2 -24 2 -39 10 -41 10 -4 12 9 10 52 -3 67 -23 89 -58 67
-12 -7 -20 -8 -20 -2 0 5 -4 10 -10 10 -6 0 -10 -28 -10 -65z"/>
<path d="M110 866 c0 -30 -2 -33 -25 -28 -36 6 -55 -14 -55 -59 0 -43 24 -74
49 -63 9 4 26 6 38 6 20 -2 21 2 21 88 -1 68 -4 90 -15 90 -8 0 -13 -12 -13
-34z m-5 -86 c0 -29 -4 -36 -23 -38 -26 -4 -37 17 -28 54 5 19 12 25 29 22 18
-2 22 -9 22 -38z"/>
<path d="M570 856 c0 -8 -6 -17 -12 -20 -10 -5 -10 -7 0 -12 7 -3 12 -25 12
-54 0 -40 4 -50 20 -55 21 -7 40 0 40 16 0 5 -9 9 -20 9 -17 0 -20 7 -20 39 0
31 4 40 23 46 l22 8 -22 4 c-13 2 -23 11 -23 19 0 8 -4 14 -10 14 -5 0 -10 -6
-10 -14z"/>
<path d="M172 779 c4 -78 23 -78 22 0 0 34 -5 56 -13 59 -9 3 -11 -13 -9 -59z"/>
<path d="M232 776 c3 -67 23 -77 23 -11 0 32 5 42 23 50 33 14 27 25 -13 23
l-36 -1 3 -61z"/>
<path d="M332 828 c-10 -13 -15 -39 -13 -70 2 -26 44 -50 75 -42 35 8 33 25
-2 22 -15 -1 -33 1 -40 6 -24 14 -11 26 28 26 35 0 40 3 40 23 0 13 -5 28 -12
35 -16 16 -63 15 -76 0z m66 -25 c2 -9 -7 -13 -27 -13 -30 0 -39 9 -24 24 11
10 46 3 51 -11z"/>
<path d="M463 828 c-44 -58 -1 -139 58 -108 29 16 23 28 -13 26 -31 -1 -33 1
-33 34 0 33 2 35 33 33 21 -1 32 3 29 10 -5 17 -62 20 -74 5z"/>
<path d="M652 776 c3 -70 21 -83 22 -16 1 37 5 47 24 55 33 14 27 25 -13 23
l-36 -1 3 -61z"/>
<path d="M740 782 c0 -56 6 -76 19 -68 10 6 0 126 -10 126 -5 0 -9 -26 -9 -58z"/>
<path d="M806 818 c-22 -31 -20 -64 4 -88 23 -23 33 -24 61 -10 29 16 23 28
-13 26 -31 -1 -33 1 -33 34 0 33 2 35 32 34 23 -1 30 2 26 12 -8 22 -60 17
-77 -8z"/>
<path d="M914 815 c-35 -53 10 -115 72 -99 34 9 30 28 -5 21 -28 -6 -51 7 -51
28 0 6 16 9 40 7 37 -4 40 -2 40 20 0 32 -18 48 -52 48 -18 0 -33 -8 -44 -25z
m74 -12 c2 -9 -7 -13 -27 -13 -30 0 -39 9 -24 24 11 10 46 3 51 -11z"/>
<path d="M1310 340 c0 -5 18 -10 40 -10 22 0 40 -2 40 -5 0 -3 -13 -35 -30
-72 -35 -76 -34 -73 -17 -73 12 0 77 135 77 160 0 6 -24 10 -55 10 -30 0 -55
-4 -55 -10z"/>
<path d="M2133 340 c-25 -10 -31 -48 -11 -68 9 -9 8 -16 -5 -30 -21 -23 -21
-36 -1 -56 21 -22 67 -20 87 2 22 24 21 37 -4 60 -17 17 -18 20 -5 25 27 10
20 56 -10 67 -14 6 -26 10 -27 9 -1 0 -12 -4 -24 -9z m53 -31 c3 -6 -1 -18
-10 -27 -15 -15 -17 -15 -32 0 -9 9 -13 21 -10 27 9 14 43 14 52 0z m-6 -74
c18 -21 5 -47 -22 -43 -26 3 -37 36 -16 49 18 12 24 11 38 -6z"/>
</g>
</svg>
